<svg width="64" height="64" fill="none" xmlns="http://www.w3.org/2000/svg"><path d="M32 63.5c17.397 0 31.5-14.103 31.5-31.5S49.397.5 32 .5.5 14.603.5 32 14.603 63.5 32 63.5Z" stroke="#EDEDED"/><path d="M56.513 52.569A32 32 0 0 0 47.91 4.234l-.477.833a31.04 31.04 0 0 1 8.346 46.885l.735.617Z" fill="#3AB8FE"/><path d="M20.929 44.522v.002c.007.797-.657 1.45-1.452 1.45a1.452 1.452 0 1 1 1.452-1.453Zm-1.451-23.593h-.002a1.452 1.452 0 0 1 .001-2.903c.817 0 1.436.643 1.452 1.456-.003.793-.656 1.454-1.451 1.447Zm25.047 0h-.004c-.79.015-1.446-.66-1.45-1.444a1.451 1.451 0 1 1 2.903-.008c0 .786-.658 1.467-1.45 1.452Zm-21.956-2.333a3.215 3.215 0 1 0-3.973 3.973V41.43a3.215 3.215 0 1 0 3.973 3.974H41.43a3.215 3.215 0 1 0 3.974-3.974V22.57a3.215 3.215 0 1 0-3.974-3.974H22.57ZM43.641 41.43a3.218 3.218 0 0 0-2.21 2.21H22.569a3.218 3.218 0 0 0-2.21-2.21V22.569a3.218 3.218 0 0 0 2.21-2.21h18.862a3.218 3.218 0 0 0 2.21 2.21v18.862Zm.882 4.543a1.452 1.452 0 1 1 0-2.903 1.452 1.452 0 0 1 0 2.903ZM32.88 24.216a.84.84 0 0 0-.278-.653.916.916 0 0 0-.603-.217.916.916 0 0 0-.603.217.84.84 0 0 0-.279.653v1.396h-.495c-2.127 0-3.613 1.567-3.613 3.634 0 2.068 1.485 3.636 3.613 3.636h.495v3.743h-1.342a.841.841 0 0 0-.654.278.916.916 0 0 0-.217.604c0 .216.07.436.217.603a.84.84 0 0 0 .654.278h1.342v1.395c0 .285.11.505.279.654a.916.916 0 0 0 .603.217.916.916 0 0 0 .603-.217.84.84 0 0 0 .279-.654v-1.395h.495c2.127 0 3.613-1.567 3.613-3.635 0-2.067-1.486-3.635-3.613-3.635h-.495v-3.743h1.342c.284 0 .505-.11.653-.279a.916.916 0 0 0 .218-.603.916.916 0 0 0-.218-.603.841.841 0 0 0-.653-.278h-1.342v-1.396Zm.496 12.409h-.495v-3.743h.495c.57 0 1.031.196 1.35.524.318.328.5.795.5 1.347 0 .552-.183 1.019-.501 1.347-.318.328-.779.525-1.35.525Zm-2.754-9.25h.495v3.743h-.495c-.57 0-1.031-.197-1.35-.524-.318-.329-.5-.795-.5-1.348 0-.551.182-1.018.5-1.347.319-.327.78-.524 1.35-.524Z" fill="#3AB8FE" stroke="#3AB8FE" stroke-width=".2"/></svg>
