<svg width="64" height="64" fill="none" xmlns="http://www.w3.org/2000/svg"><path d="M32 63.5c17.397 0 31.5-14.103 31.5-31.5S49.397.5 32 .5.5 14.603.5 32 14.603 63.5 32 63.5Z" stroke="#EDEDED"/><path d="M56.513 52.569A32 32 0 0 0 47.91 4.234l-.477.833a31.04 31.04 0 0 1 8.346 46.885l.735.617ZM38.5 47a2.5 2.5 0 1 0 0-5 2.5 2.5 0 0 0 0 5ZM38.5 22a2.5 2.5 0 1 0 0-5 2.5 2.5 0 0 0 0 5ZM17.5 35a2.5 2.5 0 1 0 0-5 2.5 2.5 0 0 0 0 5Z" fill="#fff"/><path d="M47.001 26.5a4.995 4.995 0 0 0-4.822 3.75h-5.356a4.96 4.96 0 0 0-6.864-3.304l-3.971-4.962A4.954 4.954 0 0 0 27 19a5 5 0 1 0-5 5 4.951 4.951 0 0 0 2.043-.446l3.97 4.962a4.905 4.905 0 0 0 0 5.968l-3.97 4.962a4.95 4.95 0 0 0-4.82.397A5 5 0 1 0 27 44a4.952 4.952 0 0 0-1.012-2.984l3.97-4.962a4.957 4.957 0 0 0 6.865-3.304h5.355a4.991 4.991 0 1 0 4.823-6.25Zm-27.5-7.5a2.5 2.5 0 1 1 4.999 0 2.5 2.5 0 0 1-5 0ZM22 46.5a2.5 2.5 0 1 1 0-5 2.5 2.5 0 0 1 0 5ZM32 34a2.5 2.5 0 1 1 0-5 2.5 2.5 0 0 1 0 5Zm15 0a2.5 2.5 0 1 1 0-5 2.5 2.5 0 0 1 0 5Z" fill="#fff"/></svg>
