<svg width="64" height="64" fill="none" xmlns="http://www.w3.org/2000/svg"><path d="M32 63.5c17.397 0 31.5-14.103 31.5-31.5S49.397.5 32 .5.5 14.603.5 32 14.603 63.5 32 63.5Z" stroke="#EDEDED"/><path d="M56.513 52.569A32 32 0 0 0 47.91 4.234l-.477.833a31.04 31.04 0 0 1 8.346 46.885l.735.617ZM22.438 20.536a.818.818 0 0 1-.49-1.467A16.427 16.427 0 0 1 32 16.062c2.826 0 6.885.479 10.094 2.784a.818.818 0 0 1 .191 1.137.829.829 0 0 1-1.147.18A15.937 15.937 0 0 0 32 17.689c-3.22-.11-6.39.83-9.031 2.678-.15.12-.34.18-.531.17Z" fill="#fff"/><path d="M44.995 28.026a.828.828 0 0 1-.67-.35C42.487 25.083 39.204 21.63 32 21.63a14.874 14.874 0 0 0-12.357 6.056.818.818 0 0 1-1.137.18.807.807 0 0 1-.159-1.178A16.511 16.511 0 0 1 32 20.004c5.96 0 10.423 2.21 13.643 6.737a.818.818 0 0 1-.648 1.285Z" fill="#fff"/><path d="M28.047 47.938a.83.83 0 0 1-.765-.52.796.796 0 0 1 .468-1.063c4.643-1.785 7.438-5.44 7.438-9.786A2.974 2.974 0 0 0 32 33.382c-1.976 0-2.933 1.062-3.188 3.56a4.537 4.537 0 0 1-4.802 4.069 4.538 4.538 0 0 1-4.59-4.877A12.442 12.442 0 0 1 32 23.914 12.75 12.75 0 0 1 44.75 36.59a19.825 19.825 0 0 1-1.477 6.907.829.829 0 0 1-1.062.435.807.807 0 0 1-.436-1.062 18.328 18.328 0 0 0 1.35-6.28A11.103 11.103 0 0 0 32 25.54a10.816 10.816 0 0 0-11.029 10.626 2.941 2.941 0 0 0 2.965 3.25 2.91 2.91 0 0 0 3.187-2.634c.383-3.305 2.008-4.983 4.845-4.983a4.579 4.579 0 0 1 4.803 4.845c0 5.036-3.188 9.265-8.5 11.294a.98.98 0 0 1-.224 0Z" fill="#fff"/><path d="M36.006 47.172a.861.861 0 0 1-.553-.212.809.809 0 0 1 0-1.148 13.42 13.42 0 0 0 3.762-9.222c0-1.658-.51-7.066-7.12-7.066a7.255 7.255 0 0 0-5.248 1.987 6.557 6.557 0 0 0-1.944 4.739.818.818 0 0 1-.818.807.809.809 0 0 1-.818-.807 8.211 8.211 0 0 1 2.358-5.886A8.863 8.863 0 0 1 32 27.899c6.46 0 8.755 4.675 8.755 8.691a14.971 14.971 0 0 1-4.143 10.285.798.798 0 0 1-.606.297Z" fill="#fff"/><path d="M24.201 44.473a15.025 15.025 0 0 1-1.657-.095.812.812 0 1 1 .18-1.615c2.646.297 4.728-.17 6.205-1.403a6.767 6.767 0 0 0 2.253-4.813.796.796 0 0 1 .87-.754.83.83 0 0 1 .766.86 8.384 8.384 0 0 1-2.848 5.971 8.713 8.713 0 0 1-5.769 1.85Z" fill="#fff"/></svg>
