<svg width="64" height="64" fill="none" xmlns="http://www.w3.org/2000/svg"><path d="M32 63.5c17.397 0 31.5-14.103 31.5-31.5S49.397.5 32 .5.5 14.603.5 32 14.603 63.5 32 63.5Z" stroke="#EDEDED"/><path d="M56.513 52.569A32 32 0 0 0 47.91 4.234l-.477.833a31.04 31.04 0 0 1 8.346 46.885l.735.617ZM43.667 17H20.333C18.483 17 17 18.5 17 20.333v23.334A3.332 3.332 0 0 0 20.333 47h23.334C45.5 47 47 45.5 47 43.667V20.333A3.332 3.332 0 0 0 43.667 17Zm0 26.667H20.333v-20h23.334v20Zm-5-11.667H25.333c-.916 0-1.666-.75-1.666-1.667 0-.916.75-1.666 1.666-1.666h13.334c.916 0 1.666.75 1.666 1.666 0 .917-.75 1.667-1.666 1.667ZM32 38.667h-6.667c-.916 0-1.666-.75-1.666-1.667s.75-1.667 1.666-1.667H32c.917 0 1.667.75 1.667 1.667s-.75 1.667-1.667 1.667Z" fill="#fff"/></svg>
